PathFileType	4	(X/Y/Z)	 s03c0302.trc
DataRate	CameraRate	NumFrames	NumMarkers	Units	OrigDataRate	OrigDataStartFrame	OrigNumFrames
200	200	4	52	mm	200	501	2000
Frame#	Time	racr			lacr			c7			jug			rlel			rdr			llel			ldr			s2			lic			ric			lasi			rasi			rpsi			lpsi			rgt			lgt			rth1			rth2			rth3			rth4			rlfc			rmfc			rsh1			rsh2			rsh3			rsh4			rlmal			rmmal			rcal			rtoe			rmt5			rmt1			lth1			lth2			lth4			lth3			llfc			lmfc			lsh1			lsh2			lsh3			lsh4			llmal			lmmal			lcal			ltoe			lmt1			lmt5			SBIKE			LBIKE			RBIKE			
		X1	Y1	Z1	X2	Y2	Z2	X3	Y3	Z3	X4	Y4	Z4	X5	Y5	Z5	X6	Y6	Z6	X7	Y7	Z7	X8	Y8	Z8	X9	Y9	Z9	X10	Y10	Z10	X11	Y11	Z11	X12	Y12	Z12	X13	Y13	Z13	X14	Y14	Z14	X15	Y15	Z15	X16	Y16	Z16	X17	Y17	Z17	X18	Y18	Z18	X19	Y19	Z19	X20	Y20	Z20	X21	Y21	Z21	X22	Y22	Z22	X23	Y23	Z23	X24	Y24	Z24	X25	Y25	Z25	X26	Y26	Z26	X27	Y27	Z27	X28	Y28	Z28	X29	Y29	Z29	X30	Y30	Z30	X31	Y31	Z31	X32	Y32	Z32	X33	Y33	Z33	X34	Y34	Z34	X35	Y35	Z35	X36	Y36	Z36	X37	Y37	Z37	X38	Y38	Z38	X39	Y39	Z39	X40	Y40	Z40	X41	Y41	Z41	X42	Y42	Z42	X43	Y43	Z43	X44	Y44	Z44	X45	Y45	Z45	X46	Y46	Z46	X47	Y47	Z47	X48	Y48	Z48	X49	Y49	Z49	X50	Y50	Z50	X51	Y51	Z51	X52	Y52	Z52	
501	2.5050	667.761087	1490.900074	-70.392629	641.017944	1500.885253	-407.042713	584.916846	1601.661076	-232.477087	626.085396	1436.136819	-235.603640	641.461826	1202.852034	2.695139	772.097237	942.057670	-41.516685	646.573689	1217.548544	-464.513300	772.580763	944.214800	-410.944637	90.655610	1274.260382	-197.387461	263.387379	1295.673874	-388.491314	267.915719	1322.955740	-27.476556	283.916502	1227.310958	-344.446212	301.666077	1256.523928	-72.660506	117.670778	1329.057355	-158.188873	121.398817	1321.088933	-240.085052	230.144005	1228.412305	-0.172439	184.214721	1162.396932	-386.538777	348.320353	1129.774684	18.435765	433.997154	1106.654312	14.986568	496.764427	1047.592463	13.252737	449.543529	1135.643421	-2.350444	584.957163	951.985234	-9.300540	586.223697	935.251474	-136.774279	468.587990	832.339611	3.966224	417.230429	763.673969	-18.990832	336.740643	727.378027	-23.544224	436.521724	745.907501	-45.882917	230.227841	652.520849	-49.076410	258.143916	655.400525	-137.179196	154.193635	657.088057	-88.542328	381.511031	447.763508	-119.458105	288.383153	510.746652	-40.105238	309.098962	512.094773	-154.352846	210.018494	1015.255163	-406.501147	244.647142	935.664553	-413.731655	280.920734	941.931832	-414.528806	237.339417	847.636330	-401.797185	281.724622	728.519324	-381.247619	294.410415	709.516833	-261.725328	223.762221	571.237938	-415.115064	229.584456	486.484461	-406.033632	190.412329	405.212545	-405.169042	264.080942	480.641868	-388.229382	158.106053	283.278282	-394.639647	223.275682	295.430634	-310.304115	91.044544	265.218898	-351.123952	369.226370	126.011595	-358.096105	284.027959	165.552833	-312.469570	250.133351	158.069832	-429.328659	-214.035575	946.191553	-231.257030	-6.001278	84.014768	-435.106780	-11.451163	81.532702	-34.798882	
502	2.5100	667.192125	1492.168661	-69.262873	642.341300	1500.723974	-406.133987	585.655992	1602.830615	-232.012314	626.206099	1437.412285	-234.528140	641.151370	1203.855214	2.013602	772.319486	942.862223	-41.774843	648.481067	1217.692879	-463.927496	773.124629	943.661711	-410.937747	90.405398	1277.467397	-197.543606	263.428433	1298.409914	-387.123377	267.562130	1326.172854	-27.928381	283.518849	1230.399435	-344.849888	301.139011	1259.138031	-73.179280	117.232295	1332.431046	-158.586167	121.164847	1323.865868	-240.610092	230.237535	1231.970397	-0.666281	183.199723	1165.011805	-386.554011	348.298279	1133.255378	17.778545	433.859181	1109.784559	13.929326	496.325218	1050.403920	11.708811	449.394095	1138.572265	-3.771886	585.006738	955.202227	-12.104821	586.014535	938.656971	-139.660178	470.314189	833.861513	1.811364	419.718103	764.476787	-20.757223	339.641927	727.132222	-24.549860	439.014835	747.184663	-47.748359	234.062661	651.268352	-49.078371	261.110053	654.151643	-137.405150	157.266995	654.127791	-88.275263	389.381270	450.033570	-119.529386	294.893963	511.023731	-40.093014	315.482190	512.799809	-154.256686	209.853001	1017.833668	-406.803855	244.710758	938.408910	-414.142013	280.941671	944.769140	-414.907056	237.590254	850.284423	-402.707975	282.068832	730.877551	-382.704567	295.383641	711.959746	-263.122129	222.305107	574.425920	-416.404774	227.888020	489.409458	-406.999961	188.300155	408.368484	-405.785584	262.455470	483.446851	-389.503427	155.694646	286.925628	-395.086770	220.102053	296.885901	-309.821592	88.578478	271.047726	-350.991705	362.147466	123.315113	-358.017919	278.239106	165.369902	-312.411322	244.136607	159.041476	-429.178959	-214.019678	946.261062	-231.155247	-6.001686	84.081534	-435.117454	-11.229740	81.285344	-34.858074	
503	2.5150	666.643002	1493.509935	-68.207393	643.534806	1500.666188	-405.197141	586.282478	1603.846417	-231.667140	626.305537	1438.630628	-233.306831	640.849796	1204.916066	1.236282	772.486752	943.790893	-42.273188	650.064065	1217.844473	-463.298209	773.644916	943.071090	-410.894740	90.078193	1280.856501	-197.562995	262.990693	1301.307617	-387.234798	266.954182	1329.332666	-28.413232	283.064545	1233.310720	-345.037082	299.846884	1262.455586	-74.642715	116.825965	1336.083900	-158.795702	120.934902	1326.732033	-241.655933	230.248590	1235.789409	-1.096591	182.268815	1167.776221	-386.486360	348.042223	1136.599282	17.191238	433.444303	1112.523753	12.834119	495.442799	1052.725951	9.878656	449.095681	1141.327604	-4.957340	584.792653	958.132031	-14.823691	585.611480	942.003993	-142.619359	472.131078	835.185312	-0.610104	421.981196	764.959998	-22.492923	342.272865	726.836575	-25.299883	441.404697	747.904034	-48.488939	237.706862	649.332888	-48.702339	264.088917	652.417570	-137.593124	160.244368	650.411429	-87.931755	397.213262	452.117682	-119.557920	301.396468	510.754557	-39.989172	321.970356	513.255199	-153.347544	209.947854	1020.604940	-407.159142	245.185498	941.314223	-414.609325	281.363919	947.883418	-415.314110	238.424106	853.127432	-403.645944	282.917079	733.365966	-384.333491	296.676260	714.760190	-264.415645	221.418440	577.506409	-417.518603	226.567830	492.435193	-408.208958	186.469452	411.698525	-406.621764	261.247702	486.200706	-390.917031	153.448665	290.756380	-395.817634	216.992524	298.364535	-309.780155	86.364148	277.189501	-351.196335	354.798041	120.896998	-357.726660	272.416838	165.519066	-312.526163	238.155145	160.160612	-429.029653	-214.010738	946.315231	-231.029395	-6.007162	84.122410	-435.100053	-11.229815	81.308675	-34.846199	
504	2.5200	666.064067	1494.735859	-67.030258	644.620927	1500.608949	-404.278557	586.813353	1605.006045	-231.304782	626.146663	1439.854025	-232.238114	640.470584	1206.081624	0.543546	772.775536	944.685482	-42.396553	651.468172	1218.000258	-462.631005	774.220428	942.683494	-411.084442	89.682624	1284.218553	-197.619084	262.336238	1304.044671	-387.200099	266.249011	1332.646155	-28.870802	282.505076	1236.241242	-345.434669	299.017565	1265.320604	-75.052743	116.610800	1339.688080	-159.358372	120.944907	1329.227607	-242.133992	230.090627	1239.633604	-1.559216	181.377715	1170.637333	-386.341527	349.014025	1140.044436	17.477050	432.826334	1115.059073	11.851396	494.352295	1054.719265	8.300490	448.558299	1143.770634	-6.132420	584.286637	960.792872	-17.516504	584.876530	945.125490	-145.586041	473.368671	836.237440	-2.777041	424.129730	765.257407	-24.180042	345.215519	725.775314	-26.416278	443.455501	748.385198	-49.932813	241.122631	646.759753	-48.544144	267.047213	650.160912	-137.658100	163.300304	646.279951	-87.520598	404.974145	453.948490	-119.652801	307.764392	510.200935	-39.937550	328.199239	513.266697	-153.242955	210.395947	1023.346926	-407.603766	246.106150	944.334239	-415.108496	282.231587	951.091936	-415.691883	239.763244	856.033223	-404.641370	284.299715	736.062324	-386.118505	298.537160	717.581494	-266.063975	221.040069	580.731197	-418.937297	225.726535	495.685363	-409.668878	185.017615	415.187456	-407.752980	260.422023	489.165270	-392.648961	151.525476	294.790371	-396.914975	216.644162	303.155659	-315.445153	84.407973	283.578439	-351.619969	346.887284	117.015806	-355.098771	266.614137	165.921684	-312.707039	232.195983	161.378838	-428.923974	-214.030775	946.334202	-230.907263	-6.009811	84.111117	-435.148682	-11.237745	81.330187	-34.828643	
